<svg width="120" height="32" viewBox="0 0 120 32" fill="none" xmlns="http://www.w3.org/2000/svg">
<g clip-path="url(#clip0_1_1038)">
<path d="M31.0111 15.7485C31.0111 24.4462 24.069 31.4971 15.5055 31.4971C6.94205 31.4971 0 24.4462 0 15.7485C0 7.05086 6.94205 0 15.5055 0C24.069 0 31.0111 7.05086 31.0111 15.7485Z" fill="#1D265D"/>
<path d="M12.2797 16.6982C11.7773 17.038 11.1014 16.8959 10.77 16.3807C10.4386 15.8656 10.5773 15.1725 11.0797 14.8328L14.8256 12.2995C15.328 11.9597 16.0039 12.1019 16.3353 12.617C16.6667 13.1322 16.5281 13.8252 16.0256 14.165L12.2797 16.6982Z" fill="#FF7BFF"/>
<path d="M18.8393 16.6982C19.3417 17.038 20.0176 16.8959 20.349 16.3807C20.6804 15.8656 20.5417 15.1725 20.0393 14.8328L16.2934 12.2995C15.791 11.9597 15.1151 12.1019 14.7837 12.617C14.4523 13.1322 14.591 13.8252 15.0934 14.165L18.8393 16.6982Z" fill="#FF7BFF"/>
<path d="M14.4759 11.6843H16.7701L17.3437 19.9175H13.9023L14.4759 11.6843Z" fill="#00ACFF"/>
<path d="M13.1583 24.119C12.8131 24.6245 12.1336 24.7474 11.6406 24.3934C11.1476 24.0395 11.0278 23.3428 11.3729 22.8373L13.9468 19.0683C14.292 18.5629 14.9715 18.44 15.4645 18.794C15.9575 19.1479 16.0774 19.8446 15.7321 20.3501L13.1583 24.119Z" fill="#00ACFF"/>
<path d="M17.9605 24.119C18.3057 24.6245 18.9852 24.7474 19.4782 24.3934C19.9712 24.0395 20.091 23.3428 19.7458 22.8373L17.172 19.0683C16.8268 18.5629 16.1473 18.44 15.6543 18.794C15.1612 19.1479 15.0414 19.8446 15.3866 20.3501L17.9605 24.119Z" fill="#00ACFF"/>
<path d="M18.1991 9.62611C18.1991 11.0877 17.0436 12.2725 15.6181 12.2725C14.1927 12.2725 13.0371 11.0877 13.0371 9.62611C13.0371 8.16455 14.1927 6.97974 15.6181 6.97974C17.0436 6.97974 18.1991 8.16455 18.1991 9.62611Z" fill="#FFBA00"/>
<path d="M106.251 24.5343C104.968 24.5343 104.193 24.5343 104.121 23.0205C104.072 21.9285 104.556 21.73 105.306 21.3081C106.202 20.8366 106.444 20.2906 106.444 18.8513V12.1011C106.444 11.1085 106.347 10.6866 105.597 10.3392C104.701 9.96692 104.29 9.86767 104.29 8.77573C104.29 7.2371 104.774 7.06338 106.347 7.03857H113.633C117.07 7.03857 119.393 8.42829 119.393 11.3318C119.393 12.4982 118.933 13.4661 117.989 14.1858C117.239 14.7565 116.852 14.5828 116.852 14.9302C116.852 15.3521 117.481 15.1784 118.425 15.774C119.393 16.3696 119.998 17.5608 119.998 19.4717C120.047 22.5986 118.135 24.5343 113.947 24.5343H106.251ZM112.64 14.4091C114.794 14.4091 115.375 13.8631 115.375 12.4734C115.375 10.9348 114.48 9.86767 112.156 9.86767C109.712 9.86767 110.075 9.74357 110.075 12.3245C110.075 14.7069 109.808 14.4339 112.64 14.4091ZM112.543 21.8789C114.649 21.8789 115.714 21.6804 115.714 19.6702C115.714 17.8338 114.601 16.7419 112.18 16.7419C109.712 16.7667 110.075 16.7419 110.075 19.3228C110.075 21.9534 109.736 21.8789 112.543 21.8789Z" fill="#1D265D"/>
<path d="M96.3343 24.981C91.8808 24.981 89.7266 21.9781 89.7266 17.9331C89.7266 13.9128 92.1711 10.7859 96.4311 10.8107C100.788 10.8355 102.966 13.9128 102.966 17.9331C102.966 22.003 100.497 24.981 96.3343 24.981ZM97.012 21.7052C98.6579 21.5315 99.4807 20.2162 99.1904 18.0323C98.8514 15.5507 97.8106 13.8383 95.826 14.012C94.1559 14.1609 93.2603 15.6499 93.575 17.9579C93.8654 20.241 95.0755 21.8789 97.012 21.7052Z" fill="#1D265D"/>
<path d="M81.0021 24.9316C78.3396 24.9316 76.137 24.0381 74.6607 22.4498C73.1842 20.8864 72.3613 18.7025 72.3613 16.0223C72.3613 13.0939 73.3051 10.7364 74.8784 9.09847C76.3066 7.60945 78.267 6.79053 80.4938 6.79053C82.2122 6.79053 83.253 7.33649 84.0275 8.1058C84.3422 8.37879 84.5116 8.52768 84.7777 8.52768C85.3102 8.52768 84.6325 6.98905 86.3026 6.98905C87.1741 6.98905 87.3676 7.60945 88.1662 9.49552C88.6746 10.6371 88.8925 11.4312 88.8925 12.0765C88.8925 13.0443 88.4326 13.5406 87.6579 13.7888C85.7943 14.3596 85.2134 13.6895 83.9065 12.0268C82.9383 10.8605 81.6313 10.1408 80.3244 10.1408C79.211 10.1408 78.1944 10.5875 77.5651 11.2575C76.7662 12.1261 76.3791 13.3421 76.3791 14.6078C76.3791 16.3697 77.0326 18.1565 78.2428 19.3726C79.1868 20.3404 80.4696 20.936 82.2848 20.936C83.7129 20.936 84.9715 20.5389 86.0365 20.0674C86.7383 19.7448 87.2225 19.3477 87.6579 19.6952C88.0211 19.9682 88.0211 20.4893 87.8033 21.0104C86.9803 22.9213 85.2618 24.9316 81.0021 24.9316Z" fill="#1D265D"/>
<path d="M56.4113 24.7578C54.3539 24.733 53.4824 24.733 53.4824 23.1695C53.4824 22.152 53.7972 22.0032 54.4748 21.4572C55.1041 20.9857 55.2979 20.5886 55.8304 19.1741C56.871 16.4442 57.8392 13.8633 58.5411 11.9524C58.9768 10.7116 58.9284 10.389 58.2265 10.1656C57.4761 9.94228 56.9438 9.76856 56.9438 8.67662C56.9438 6.86502 58.1056 7.06354 61.5423 7.06354C67.0366 7.06354 65.8507 6.91466 66.964 10.662C67.6901 13.0443 68.6341 15.8734 69.5779 19.0748C70.0378 20.6631 70.1346 20.9857 70.8125 21.4076C71.4902 21.8542 71.7563 22.1769 71.7563 22.9462C71.7079 24.6833 71.1996 24.7082 67.6417 24.7082C64.3741 24.733 63.5997 24.8321 63.5997 23.2192C63.5997 22.5739 63.8902 22.2761 64.5921 21.9039C65.3181 21.5813 65.4149 21.4324 65.1972 20.6382C65.0762 20.266 64.9792 19.8689 64.8824 19.5711C64.5195 18.4295 64.3499 18.7025 61.8328 18.7025C59.3883 18.7025 59.2915 18.504 58.9042 19.6456C58.7832 19.993 58.662 20.3901 58.5169 20.7871C58.2507 21.5813 58.3717 21.7798 58.9768 22.0776C59.4125 22.3754 59.8482 22.4747 59.8482 23.2688C59.8482 24.733 59.2429 24.7578 56.4113 24.7578ZM62.0022 16.469C64.3257 16.469 64.4469 16.618 63.9628 15.0545C63.5997 13.9129 63.0914 12.1013 62.8736 11.3568C62.6556 10.4882 62.6073 10.116 62.1232 10.116C61.7361 10.116 61.6877 10.4882 61.3971 11.2824C61.0584 12.3247 60.5501 13.8385 60.1386 15.0545C59.5577 16.7172 59.6302 16.469 62.0022 16.469Z" fill="#1D265D"/>
<path d="M44.5197 25.0058C40.7683 25.0058 38.0332 22.8219 38.0332 19.0497C38.0332 16.7666 39.195 15.1535 41.204 15.1535C42.6077 15.1535 43.5518 15.9476 43.5518 17.5607C43.5518 19.0001 42.4384 19.2235 42.4384 20.1913C42.4384 21.1095 43.3822 21.6058 44.8829 21.6058C46.7707 21.6058 47.5938 20.8614 47.5938 18.1563C47.5938 16.3944 47.4728 14.012 47.3758 12.4733C47.3032 11.2325 47.3516 10.5624 46.4562 10.3887C44.7619 10.0165 44.4955 9.79313 44.4955 8.5275C44.4955 7.13775 45.367 7.01367 49.3364 7.01367C52.5554 7.01367 53.3784 7.08814 53.3784 8.5275C53.3784 9.56978 52.9911 9.84277 52.3134 10.2646C51.7084 10.5873 51.4662 10.7858 51.4662 12.2996C51.442 13.9375 51.66 16.6922 51.66 18.206C51.66 22.3007 48.9733 25.0058 44.5197 25.0058Z" fill="#1D265D"/>
</g>
<defs>
<clipPath id="clip0_1_1038">
<rect width="120" height="32" fill="white"/>
</clipPath>
</defs>
</svg>
